<svg xmlns="http://www.w3.org/2000/svg" width="36" height="35" fill="none"><rect width="32.148" height="32.083" x="1.458" y="1.458" fill="#4D8DFF" rx="12.396"/><rect width="32.148" height="32.083" x="1.458" y="1.458" stroke="#fff" stroke-width="2.917" rx="12.396"/><rect width="32.148" height="32.083" x="1.458" y="1.458" stroke="#4D8DFF" stroke-width="2.917" rx="12.396"/><path fill="#fff" d="M25.814 12.24a.79.79 0 0 0-1.134 0l-9.602 9.788-3.691-3.763a.79.79 0 0 0-1.134 0 .828.828 0 0 0 0 1.156l4.258 4.34a.791.791 0 0 0 1.134 0l10.169-10.366a.828.828 0 0 0 0-1.156Z"/></svg>